<mxfile host="Electron" modified="2023-11-28T20:17:06.138Z" agent="Mozilla/5.0 (Windows NT 10.0; Win64; x64) AppleWebKit/537.36 (KHTML, like Gecko) draw.io/21.7.5 Chrome/114.0.5735.289 Electron/25.8.1 Safari/537.36" etag="E_2TvUMiUJ37vhShG2V5" version="21.7.5" type="device">
  <diagram name="Сторінка-1" id="5yrO968oGv0XXTzRiIef">
    <mxGraphModel dx="2590" dy="1745" grid="1" gridSize="10" guides="1" tooltips="1" connect="1" arrows="1" fold="1" page="1" pageScale="1" pageWidth="827" pageHeight="1169" math="0" shadow="0">
      <root>
        <mxCell id="0" />
        <mxCell id="1" parent="0" />
        <mxCell id="MI_QVqifmA2h6uPWoU6A-3" value="" style="edgeStyle=orthogonalEdgeStyle;rounded=0;orthogonalLoop=1;jettySize=auto;html=1;" edge="1" parent="1" source="MI_QVqifmA2h6uPWoU6A-1" target="MI_QVqifmA2h6uPWoU6A-2">
          <mxGeometry relative="1" as="geometry" />
        </mxCell>
        <mxCell id="MI_QVqifmA2h6uPWoU6A-1" value="DecToOct&lt;br&gt;" style="ellipse;whiteSpace=wrap;html=1;aspect=fixed;" vertex="1" parent="1">
          <mxGeometry x="50" width="80" height="80" as="geometry" />
        </mxCell>
        <mxCell id="MI_QVqifmA2h6uPWoU6A-5" value="" style="edgeStyle=orthogonalEdgeStyle;rounded=0;orthogonalLoop=1;jettySize=auto;html=1;" edge="1" parent="1" source="MI_QVqifmA2h6uPWoU6A-2">
          <mxGeometry relative="1" as="geometry">
            <mxPoint x="90" y="210" as="targetPoint" />
          </mxGeometry>
        </mxCell>
        <mxCell id="MI_QVqifmA2h6uPWoU6A-2" value="int num_args, ..." style="shape=parallelogram;perimeter=parallelogramPerimeter;whiteSpace=wrap;html=1;fixedSize=1;" vertex="1" parent="1">
          <mxGeometry x="30" y="110" width="120" height="60" as="geometry" />
        </mxCell>
        <mxCell id="MI_QVqifmA2h6uPWoU6A-8" value="" style="edgeStyle=orthogonalEdgeStyle;rounded=0;orthogonalLoop=1;jettySize=auto;html=1;" edge="1" parent="1" source="MI_QVqifmA2h6uPWoU6A-6" target="MI_QVqifmA2h6uPWoU6A-7">
          <mxGeometry relative="1" as="geometry" />
        </mxCell>
        <mxCell id="MI_QVqifmA2h6uPWoU6A-6" value="&lt;div style=&quot;color: rgb(187, 187, 187); font-family: Consolas, &amp;quot;Courier New&amp;quot;, monospace; font-size: 14px; line-height: 19px;&quot;&gt;&lt;div style=&quot;&quot;&gt;va_list &lt;span style=&quot;color: rgb(194, 165, 233);&quot;&gt;args&lt;/span&gt;;&lt;/div&gt;&lt;div style=&quot;&quot;&gt;&amp;nbsp; &amp;nbsp; &lt;span style=&quot;color: #dafbac;&quot;&gt;va_start&lt;/span&gt; (&lt;span style=&quot;color: #c2a5e9;&quot;&gt;args&lt;/span&gt;, &lt;span style=&quot;color: #b7ff9a;font-style: italic;&quot;&gt;num_args&lt;/span&gt;);&lt;/div&gt;&lt;div style=&quot;&quot;&gt;&amp;nbsp; &amp;nbsp; &lt;span style=&quot;color: rgb(250, 227, 198);&quot;&gt;vector&lt;/span&gt;&lt;span style=&quot;color: rgb(250, 176, 203); font-style: italic;&quot;&gt;&amp;lt;&lt;/span&gt;&lt;span style=&quot;color: rgb(209, 147, 228);&quot;&gt;int&lt;/span&gt;&lt;span style=&quot;color: rgb(250, 176, 203); font-style: italic;&quot;&gt;&amp;gt;&lt;/span&gt; &lt;span style=&quot;color: rgb(194, 165, 233);&quot;&gt;octnum&lt;/span&gt;;&lt;/div&gt;&lt;/div&gt;" style="rounded=1;whiteSpace=wrap;html=1;" vertex="1" parent="1">
          <mxGeometry x="30" y="210" width="240" height="60" as="geometry" />
        </mxCell>
        <mxCell id="MI_QVqifmA2h6uPWoU6A-10" value="" style="edgeStyle=orthogonalEdgeStyle;rounded=0;orthogonalLoop=1;jettySize=auto;html=1;" edge="1" parent="1" source="MI_QVqifmA2h6uPWoU6A-7" target="MI_QVqifmA2h6uPWoU6A-9">
          <mxGeometry relative="1" as="geometry" />
        </mxCell>
        <mxCell id="MI_QVqifmA2h6uPWoU6A-7" value="&lt;div style=&quot;color: rgb(187, 187, 187); font-family: Consolas, &amp;quot;Courier New&amp;quot;, monospace; font-size: 14px; line-height: 19px;&quot;&gt;for(&lt;span style=&quot;color: rgb(209, 147, 228);&quot;&gt;int&lt;/span&gt; &lt;span style=&quot;color: rgb(194, 165, 233);&quot;&gt;i&lt;/span&gt; &lt;span style=&quot;color: rgb(250, 176, 203); font-style: italic;&quot;&gt;=&lt;/span&gt; &lt;span style=&quot;color: rgb(247, 252, 233); font-style: italic;&quot;&gt;0&lt;/span&gt;; &lt;span style=&quot;color: rgb(194, 165, 233);&quot;&gt;i&lt;/span&gt; &lt;span style=&quot;color: rgb(250, 176, 203); font-style: italic;&quot;&gt;&amp;lt;&lt;/span&gt; &lt;span style=&quot;color: rgb(183, 255, 154); font-style: italic;&quot;&gt;num_args&lt;/span&gt;; &lt;span style=&quot;color: rgb(194, 165, 233);&quot;&gt;i&lt;/span&gt;&lt;span style=&quot;color: rgb(250, 176, 203); font-style: italic;&quot;&gt;++&lt;/span&gt;)&lt;/div&gt;" style="shape=trapezoid;perimeter=trapezoidPerimeter;whiteSpace=wrap;html=1;fixedSize=1;" vertex="1" parent="1">
          <mxGeometry x="65" y="310" width="170" height="60" as="geometry" />
        </mxCell>
        <mxCell id="MI_QVqifmA2h6uPWoU6A-14" value="" style="edgeStyle=orthogonalEdgeStyle;rounded=0;orthogonalLoop=1;jettySize=auto;html=1;" edge="1" parent="1" source="MI_QVqifmA2h6uPWoU6A-9" target="MI_QVqifmA2h6uPWoU6A-13">
          <mxGeometry relative="1" as="geometry" />
        </mxCell>
        <mxCell id="MI_QVqifmA2h6uPWoU6A-9" value="&lt;br&gt;&lt;div style=&quot;color: rgb(187, 187, 187); font-family: Consolas, &amp;quot;Courier New&amp;quot;, monospace; font-weight: normal; font-size: 14px; line-height: 19px;&quot;&gt;&lt;div&gt;&lt;span style=&quot;color: #d193e4;&quot;&gt;int&lt;/span&gt;&lt;span style=&quot;color: #bbbbbb;&quot;&gt; &lt;/span&gt;&lt;span style=&quot;color: #c2a5e9;&quot;&gt;decnum&lt;/span&gt;&lt;span style=&quot;color: #bbbbbb;&quot;&gt; &lt;/span&gt;&lt;span style=&quot;color: #fab0cb;font-style: italic;&quot;&gt;=&lt;/span&gt;&lt;span style=&quot;color: #bbbbbb;&quot;&gt; &lt;/span&gt;&lt;span style=&quot;color: #dafbac;&quot;&gt;va_arg&lt;/span&gt;&lt;span style=&quot;color: #bbbbbb;&quot;&gt;(&lt;/span&gt;&lt;span style=&quot;color: #c2a5e9;&quot;&gt;args&lt;/span&gt;&lt;span style=&quot;color: #bbbbbb;&quot;&gt;, &lt;/span&gt;&lt;span style=&quot;color: #d193e4;&quot;&gt;int&lt;/span&gt;&lt;span style=&quot;color: #bbbbbb;&quot;&gt;);&lt;/span&gt;&lt;/div&gt;&lt;div&gt;&lt;span style=&quot;color: #bbbbbb;&quot;&gt;&amp;nbsp; &amp;nbsp; &amp;nbsp; &amp;nbsp; &lt;/span&gt;&lt;span style=&quot;color: #d193e4;&quot;&gt;int&lt;/span&gt;&lt;span style=&quot;color: #bbbbbb;&quot;&gt; &lt;/span&gt;&lt;span style=&quot;color: #c2a5e9;&quot;&gt;octalnum&lt;/span&gt;&lt;span style=&quot;color: #bbbbbb;&quot;&gt; &lt;/span&gt;&lt;span style=&quot;color: #fab0cb;font-style: italic;&quot;&gt;=&lt;/span&gt;&lt;span style=&quot;color: #bbbbbb;&quot;&gt; &lt;/span&gt;&lt;span style=&quot;color: #f7fce9;font-style: italic;&quot;&gt;0&lt;/span&gt;&lt;span style=&quot;color: #bbbbbb;&quot;&gt;, &lt;/span&gt;&lt;span style=&quot;color: #c2a5e9;&quot;&gt;a&lt;/span&gt;&lt;span style=&quot;color: #bbbbbb;&quot;&gt; &lt;/span&gt;&lt;span style=&quot;color: #fab0cb;font-style: italic;&quot;&gt;=&lt;/span&gt;&lt;span style=&quot;color: #bbbbbb;&quot;&gt; &lt;/span&gt;&lt;span style=&quot;color: #f7fce9;font-style: italic;&quot;&gt;1&lt;/span&gt;&lt;span style=&quot;color: #bbbbbb;&quot;&gt;, &lt;/span&gt;&lt;span style=&quot;color: #c2a5e9;&quot;&gt;rem&lt;/span&gt;&lt;span style=&quot;color: #bbbbbb;&quot;&gt;;&lt;/span&gt;&lt;/div&gt;&lt;/div&gt;&lt;br&gt;" style="rounded=1;whiteSpace=wrap;html=1;" vertex="1" parent="1">
          <mxGeometry x="10" y="390" width="280" height="60" as="geometry" />
        </mxCell>
        <mxCell id="MI_QVqifmA2h6uPWoU6A-16" value="" style="edgeStyle=orthogonalEdgeStyle;rounded=0;orthogonalLoop=1;jettySize=auto;html=1;" edge="1" parent="1" source="MI_QVqifmA2h6uPWoU6A-13" target="MI_QVqifmA2h6uPWoU6A-15">
          <mxGeometry relative="1" as="geometry" />
        </mxCell>
        <mxCell id="MI_QVqifmA2h6uPWoU6A-13" value="&lt;div style=&quot;color: rgb(187, 187, 187); font-family: Consolas, &amp;quot;Courier New&amp;quot;, monospace; font-size: 14px; line-height: 19px;&quot;&gt;while (&lt;span style=&quot;color: rgb(194, 165, 233);&quot;&gt;decnum&lt;/span&gt; &lt;span style=&quot;color: rgb(250, 176, 203); font-style: italic;&quot;&gt;!=&lt;/span&gt; &lt;span style=&quot;color: rgb(247, 252, 233); font-style: italic;&quot;&gt;0&lt;/span&gt;)&lt;/div&gt;" style="shape=trapezoid;perimeter=trapezoidPerimeter;whiteSpace=wrap;html=1;fixedSize=1;" vertex="1" parent="1">
          <mxGeometry x="55" y="480" width="190" height="60" as="geometry" />
        </mxCell>
        <mxCell id="MI_QVqifmA2h6uPWoU6A-18" value="" style="edgeStyle=orthogonalEdgeStyle;rounded=0;orthogonalLoop=1;jettySize=auto;html=1;" edge="1" parent="1" source="MI_QVqifmA2h6uPWoU6A-15" target="MI_QVqifmA2h6uPWoU6A-17">
          <mxGeometry relative="1" as="geometry" />
        </mxCell>
        <mxCell id="MI_QVqifmA2h6uPWoU6A-15" value="&lt;div style=&quot;color: rgb(187, 187, 187); font-family: Consolas, &amp;quot;Courier New&amp;quot;, monospace; font-size: 14px; line-height: 19px;&quot;&gt;rem &lt;span style=&quot;color: rgb(250, 176, 203); font-style: italic;&quot;&gt;=&lt;/span&gt; &lt;span style=&quot;color: rgb(194, 165, 233);&quot;&gt;decnum&lt;/span&gt; &lt;span style=&quot;color: rgb(250, 176, 203); font-style: italic;&quot;&gt;%&lt;/span&gt; &lt;span style=&quot;color: rgb(247, 252, 233); font-style: italic;&quot;&gt;8&lt;/span&gt;;&lt;/div&gt;" style="rounded=1;whiteSpace=wrap;html=1;" vertex="1" parent="1">
          <mxGeometry x="90" y="570" width="120" height="60" as="geometry" />
        </mxCell>
        <mxCell id="MI_QVqifmA2h6uPWoU6A-20" value="" style="edgeStyle=orthogonalEdgeStyle;rounded=0;orthogonalLoop=1;jettySize=auto;html=1;" edge="1" parent="1" source="MI_QVqifmA2h6uPWoU6A-17" target="MI_QVqifmA2h6uPWoU6A-19">
          <mxGeometry relative="1" as="geometry" />
        </mxCell>
        <mxCell id="MI_QVqifmA2h6uPWoU6A-17" value="&lt;br&gt;&lt;div style=&quot;color: rgb(187, 187, 187); font-family: Consolas, &amp;quot;Courier New&amp;quot;, monospace; font-weight: normal; font-size: 14px; line-height: 19px;&quot;&gt;&lt;div&gt;&lt;span style=&quot;color: #bbbbbb;&quot;&gt;&amp;nbsp;&lt;/span&gt;&lt;span style=&quot;color: #c2a5e9;&quot;&gt;decnum&lt;/span&gt;&lt;span style=&quot;color: #bbbbbb;&quot;&gt; &lt;/span&gt;&lt;span style=&quot;color: #fab0cb;font-style: italic;&quot;&gt;/=&lt;/span&gt;&lt;span style=&quot;color: #bbbbbb;&quot;&gt; &lt;/span&gt;&lt;span style=&quot;color: #f7fce9;font-style: italic;&quot;&gt;8&lt;/span&gt;&lt;span style=&quot;color: #bbbbbb;&quot;&gt;; &amp;nbsp;&lt;/span&gt;&lt;/div&gt;&lt;/div&gt;&lt;br&gt;" style="rounded=1;whiteSpace=wrap;html=1;" vertex="1" parent="1">
          <mxGeometry x="90" y="660" width="120" height="60" as="geometry" />
        </mxCell>
        <mxCell id="MI_QVqifmA2h6uPWoU6A-22" value="" style="edgeStyle=orthogonalEdgeStyle;rounded=0;orthogonalLoop=1;jettySize=auto;html=1;" edge="1" parent="1" source="MI_QVqifmA2h6uPWoU6A-19" target="MI_QVqifmA2h6uPWoU6A-21">
          <mxGeometry relative="1" as="geometry" />
        </mxCell>
        <mxCell id="MI_QVqifmA2h6uPWoU6A-19" value="&lt;br&gt;&lt;div style=&quot;color: rgb(187, 187, 187); font-family: Consolas, &amp;quot;Courier New&amp;quot;, monospace; font-weight: normal; font-size: 14px; line-height: 19px;&quot;&gt;&lt;div&gt;&lt;span style=&quot;color: #c2a5e9;&quot;&gt;octalnum&lt;/span&gt;&lt;span style=&quot;color: #bbbbbb;&quot;&gt; &lt;/span&gt;&lt;span style=&quot;color: #fab0cb;font-style: italic;&quot;&gt;+=&lt;/span&gt;&lt;span style=&quot;color: #bbbbbb;&quot;&gt; &lt;/span&gt;&lt;span style=&quot;color: #c2a5e9;&quot;&gt;rem&lt;/span&gt;&lt;span style=&quot;color: #bbbbbb;&quot;&gt; &lt;/span&gt;&lt;span style=&quot;color: #fab0cb;font-style: italic;&quot;&gt;*&lt;/span&gt;&lt;span style=&quot;color: #bbbbbb;&quot;&gt; &lt;/span&gt;&lt;span style=&quot;color: #c2a5e9;&quot;&gt;a&lt;/span&gt;&lt;span style=&quot;color: #bbbbbb;&quot;&gt;;&lt;/span&gt;&lt;/div&gt;&lt;/div&gt;&lt;br&gt;" style="rounded=1;whiteSpace=wrap;html=1;" vertex="1" parent="1">
          <mxGeometry x="90" y="750" width="120" height="60" as="geometry" />
        </mxCell>
        <mxCell id="MI_QVqifmA2h6uPWoU6A-24" value="" style="edgeStyle=orthogonalEdgeStyle;rounded=0;orthogonalLoop=1;jettySize=auto;html=1;" edge="1" parent="1" source="MI_QVqifmA2h6uPWoU6A-21" target="MI_QVqifmA2h6uPWoU6A-23">
          <mxGeometry relative="1" as="geometry" />
        </mxCell>
        <mxCell id="MI_QVqifmA2h6uPWoU6A-21" value="&lt;br&gt;&lt;div style=&quot;color: rgb(187, 187, 187); font-family: Consolas, &amp;quot;Courier New&amp;quot;, monospace; font-weight: normal; font-size: 14px; line-height: 19px;&quot;&gt;&lt;div&gt;&lt;span style=&quot;color: #c2a5e9;&quot;&gt;a&lt;/span&gt;&lt;span style=&quot;color: #bbbbbb;&quot;&gt; &lt;/span&gt;&lt;span style=&quot;color: #fab0cb;font-style: italic;&quot;&gt;*=&lt;/span&gt;&lt;span style=&quot;color: #bbbbbb;&quot;&gt; &lt;/span&gt;&lt;span style=&quot;color: #f7fce9;font-style: italic;&quot;&gt;10&lt;/span&gt;&lt;span style=&quot;color: #bbbbbb;&quot;&gt;;&lt;/span&gt;&lt;/div&gt;&lt;/div&gt;&lt;br&gt;" style="whiteSpace=wrap;html=1;rounded=1;" vertex="1" parent="1">
          <mxGeometry x="90" y="830" width="120" height="60" as="geometry" />
        </mxCell>
        <mxCell id="MI_QVqifmA2h6uPWoU6A-26" value="" style="edgeStyle=orthogonalEdgeStyle;rounded=0;orthogonalLoop=1;jettySize=auto;html=1;" edge="1" parent="1" source="MI_QVqifmA2h6uPWoU6A-23" target="MI_QVqifmA2h6uPWoU6A-25">
          <mxGeometry relative="1" as="geometry" />
        </mxCell>
        <mxCell id="MI_QVqifmA2h6uPWoU6A-23" value="&lt;div style=&quot;color: rgb(187, 187, 187); font-family: Consolas, &amp;quot;Courier New&amp;quot;, monospace; font-size: 14px; line-height: 19px;&quot;&gt;while (&lt;span style=&quot;color: rgb(194, 165, 233);&quot;&gt;decnum&lt;/span&gt; &lt;span style=&quot;color: rgb(250, 176, 203); font-style: italic;&quot;&gt;!=&lt;/span&gt; &lt;span style=&quot;color: rgb(247, 252, 233); font-style: italic;&quot;&gt;0&lt;/span&gt;)&lt;/div&gt;" style="shape=trapezoid;perimeter=trapezoidPerimeter;whiteSpace=wrap;html=1;fixedSize=1;direction=west;" vertex="1" parent="1">
          <mxGeometry x="55" y="920" width="190" height="60" as="geometry" />
        </mxCell>
        <mxCell id="MI_QVqifmA2h6uPWoU6A-30" value="" style="edgeStyle=orthogonalEdgeStyle;rounded=0;orthogonalLoop=1;jettySize=auto;html=1;" edge="1" parent="1" source="MI_QVqifmA2h6uPWoU6A-25" target="MI_QVqifmA2h6uPWoU6A-29">
          <mxGeometry relative="1" as="geometry" />
        </mxCell>
        <mxCell id="MI_QVqifmA2h6uPWoU6A-25" value="&lt;br&gt;&lt;div style=&quot;color: rgb(187, 187, 187); font-family: Consolas, &amp;quot;Courier New&amp;quot;, monospace; font-weight: normal; font-size: 14px; line-height: 19px;&quot;&gt;&lt;div&gt;&lt;span style=&quot;color: #c2a5e9;&quot;&gt;octnum&lt;/span&gt;&lt;span style=&quot;color: #bbbbbb;&quot;&gt;.&lt;/span&gt;&lt;span style=&quot;color: #fff7b3;font-style: italic;&quot;&gt;push_back&lt;/span&gt;&lt;span style=&quot;color: #bbbbbb;&quot;&gt;(&lt;/span&gt;&lt;span style=&quot;color: #c2a5e9;&quot;&gt;octalnum&lt;/span&gt;&lt;span style=&quot;color: #bbbbbb;&quot;&gt;);&lt;/span&gt;&lt;/div&gt;&lt;/div&gt;&lt;br&gt;" style="rounded=1;whiteSpace=wrap;html=1;" vertex="1" parent="1">
          <mxGeometry x="20" y="1000" width="260" height="30" as="geometry" />
        </mxCell>
        <mxCell id="MI_QVqifmA2h6uPWoU6A-32" value="" style="edgeStyle=orthogonalEdgeStyle;rounded=0;orthogonalLoop=1;jettySize=auto;html=1;" edge="1" parent="1" source="MI_QVqifmA2h6uPWoU6A-29" target="MI_QVqifmA2h6uPWoU6A-31">
          <mxGeometry relative="1" as="geometry" />
        </mxCell>
        <mxCell id="MI_QVqifmA2h6uPWoU6A-29" value="&lt;div style=&quot;color: rgb(187, 187, 187); font-family: Consolas, &amp;quot;Courier New&amp;quot;, monospace; font-size: 14px; line-height: 19px;&quot;&gt;for(&lt;span style=&quot;color: rgb(209, 147, 228);&quot;&gt;int&lt;/span&gt; &lt;span style=&quot;color: rgb(194, 165, 233);&quot;&gt;i&lt;/span&gt; &lt;span style=&quot;color: rgb(250, 176, 203); font-style: italic;&quot;&gt;=&lt;/span&gt; &lt;span style=&quot;color: rgb(247, 252, 233); font-style: italic;&quot;&gt;0&lt;/span&gt;; &lt;span style=&quot;color: rgb(194, 165, 233);&quot;&gt;i&lt;/span&gt; &lt;span style=&quot;color: rgb(250, 176, 203); font-style: italic;&quot;&gt;&amp;lt;&lt;/span&gt; &lt;span style=&quot;color: rgb(183, 255, 154); font-style: italic;&quot;&gt;num_args&lt;/span&gt;; &lt;span style=&quot;color: rgb(194, 165, 233);&quot;&gt;i&lt;/span&gt;&lt;span style=&quot;color: rgb(250, 176, 203); font-style: italic;&quot;&gt;++&lt;/span&gt;)&lt;/div&gt;" style="shape=trapezoid;perimeter=trapezoidPerimeter;whiteSpace=wrap;html=1;fixedSize=1;direction=west;" vertex="1" parent="1">
          <mxGeometry x="65" y="1050" width="170" height="60" as="geometry" />
        </mxCell>
        <mxCell id="MI_QVqifmA2h6uPWoU6A-31" value="Return&amp;nbsp;octnum" style="rounded=1;whiteSpace=wrap;html=1;" vertex="1" parent="1">
          <mxGeometry x="90" y="1130" width="120" height="60" as="geometry" />
        </mxCell>
        <mxCell id="MI_QVqifmA2h6uPWoU6A-35" value="" style="edgeStyle=orthogonalEdgeStyle;rounded=0;orthogonalLoop=1;jettySize=auto;html=1;" edge="1" parent="1" source="MI_QVqifmA2h6uPWoU6A-33" target="MI_QVqifmA2h6uPWoU6A-34">
          <mxGeometry relative="1" as="geometry" />
        </mxCell>
        <mxCell id="MI_QVqifmA2h6uPWoU6A-33" value="START&lt;br&gt;" style="ellipse;whiteSpace=wrap;html=1;" vertex="1" parent="1">
          <mxGeometry x="510" y="40" width="120" height="40" as="geometry" />
        </mxCell>
        <mxCell id="MI_QVqifmA2h6uPWoU6A-41" value="" style="edgeStyle=orthogonalEdgeStyle;rounded=0;orthogonalLoop=1;jettySize=auto;html=1;" edge="1" parent="1" source="MI_QVqifmA2h6uPWoU6A-34" target="MI_QVqifmA2h6uPWoU6A-38">
          <mxGeometry relative="1" as="geometry" />
        </mxCell>
        <mxCell id="MI_QVqifmA2h6uPWoU6A-34" value="Vector result 1&lt;br&gt;&lt;div style=&quot;color: rgb(187, 187, 187); font-family: Consolas, &amp;quot;Courier New&amp;quot;, monospace; font-size: 14px; line-height: 19px;&quot;&gt;(3, &lt;span style=&quot;color: rgb(247, 252, 233); font-style: italic;&quot;&gt;20&lt;/span&gt;, &lt;span style=&quot;color: rgb(247, 252, 233); font-style: italic;&quot;&gt;60&lt;/span&gt;, &lt;span style=&quot;color: rgb(247, 252, 233); font-style: italic;&quot;&gt;70&lt;/span&gt;)&lt;/div&gt;" style="rounded=1;whiteSpace=wrap;html=1;" vertex="1" parent="1">
          <mxGeometry x="510" y="150" width="120" height="60" as="geometry" />
        </mxCell>
        <mxCell id="MI_QVqifmA2h6uPWoU6A-40" value="" style="edgeStyle=orthogonalEdgeStyle;rounded=0;orthogonalLoop=1;jettySize=auto;html=1;" edge="1" parent="1" source="MI_QVqifmA2h6uPWoU6A-38" target="MI_QVqifmA2h6uPWoU6A-39">
          <mxGeometry relative="1" as="geometry" />
        </mxCell>
        <mxCell id="MI_QVqifmA2h6uPWoU6A-38" value="DecToOct&lt;br&gt;" style="ellipse;whiteSpace=wrap;html=1;aspect=fixed;" vertex="1" parent="1">
          <mxGeometry x="530" y="240" width="80" height="80" as="geometry" />
        </mxCell>
        <mxCell id="MI_QVqifmA2h6uPWoU6A-43" value="" style="edgeStyle=orthogonalEdgeStyle;rounded=0;orthogonalLoop=1;jettySize=auto;html=1;" edge="1" parent="1" source="MI_QVqifmA2h6uPWoU6A-39" target="MI_QVqifmA2h6uPWoU6A-42">
          <mxGeometry relative="1" as="geometry" />
        </mxCell>
        <mxCell id="MI_QVqifmA2h6uPWoU6A-39" value="Vector result 2&lt;br&gt;&lt;div style=&quot;color: rgb(187, 187, 187); font-family: Consolas, &amp;quot;Courier New&amp;quot;, monospace; font-size: 14px; line-height: 19px;&quot;&gt;&lt;div style=&quot;line-height: 19px;&quot;&gt;(5, &lt;span style=&quot;color: rgb(247, 252, 233); font-style: italic;&quot;&gt;24&lt;/span&gt;, &lt;span style=&quot;color: rgb(247, 252, 233); font-style: italic;&quot;&gt;65&lt;/span&gt;, &lt;span style=&quot;color: rgb(247, 252, 233); font-style: italic;&quot;&gt;78&lt;/span&gt;, &lt;span style=&quot;color: rgb(247, 252, 233); font-style: italic;&quot;&gt;25&lt;/span&gt;, &lt;span style=&quot;color: rgb(247, 252, 233); font-style: italic;&quot;&gt;21&lt;/span&gt;)&lt;/div&gt;&lt;/div&gt;" style="rounded=1;whiteSpace=wrap;html=1;" vertex="1" parent="1">
          <mxGeometry x="510" y="360" width="120" height="60" as="geometry" />
        </mxCell>
        <mxCell id="MI_QVqifmA2h6uPWoU6A-45" value="" style="edgeStyle=orthogonalEdgeStyle;rounded=0;orthogonalLoop=1;jettySize=auto;html=1;" edge="1" parent="1" source="MI_QVqifmA2h6uPWoU6A-42" target="MI_QVqifmA2h6uPWoU6A-44">
          <mxGeometry relative="1" as="geometry" />
        </mxCell>
        <mxCell id="MI_QVqifmA2h6uPWoU6A-42" value="DecToOct&lt;br&gt;" style="ellipse;whiteSpace=wrap;html=1;aspect=fixed;" vertex="1" parent="1">
          <mxGeometry x="530" y="460" width="80" height="80" as="geometry" />
        </mxCell>
        <mxCell id="MI_QVqifmA2h6uPWoU6A-47" value="" style="edgeStyle=orthogonalEdgeStyle;rounded=0;orthogonalLoop=1;jettySize=auto;html=1;" edge="1" parent="1" source="MI_QVqifmA2h6uPWoU6A-44" target="MI_QVqifmA2h6uPWoU6A-46">
          <mxGeometry relative="1" as="geometry" />
        </mxCell>
        <mxCell id="MI_QVqifmA2h6uPWoU6A-44" value="Vector result 3&lt;br&gt;&lt;div style=&quot;color: rgb(187, 187, 187); font-family: Consolas, &amp;quot;Courier New&amp;quot;, monospace; font-size: 14px; line-height: 19px;&quot;&gt;&lt;div style=&quot;line-height: 19px;&quot;&gt;(8, &lt;span style=&quot;color: rgb(247, 252, 233); font-style: italic;&quot;&gt;34&lt;/span&gt;, &lt;span style=&quot;color: rgb(247, 252, 233); font-style: italic;&quot;&gt;75&lt;/span&gt;, &lt;span style=&quot;color: rgb(247, 252, 233); font-style: italic;&quot;&gt;58&lt;/span&gt;, &lt;span style=&quot;color: rgb(247, 252, 233); font-style: italic;&quot;&gt;45&lt;/span&gt;, &lt;span style=&quot;color: rgb(247, 252, 233); font-style: italic;&quot;&gt;91&lt;/span&gt;, &lt;span style=&quot;color: rgb(247, 252, 233); font-style: italic;&quot;&gt;11&lt;/span&gt;, &lt;span style=&quot;color: rgb(247, 252, 233); font-style: italic;&quot;&gt;56&lt;/span&gt;, &lt;span style=&quot;color: rgb(247, 252, 233); font-style: italic;&quot;&gt;17&lt;/span&gt;)&lt;/div&gt;&lt;/div&gt;" style="rounded=1;whiteSpace=wrap;html=1;" vertex="1" parent="1">
          <mxGeometry x="490" y="570" width="160" height="60" as="geometry" />
        </mxCell>
        <mxCell id="MI_QVqifmA2h6uPWoU6A-49" value="" style="edgeStyle=orthogonalEdgeStyle;rounded=0;orthogonalLoop=1;jettySize=auto;html=1;" edge="1" parent="1" source="MI_QVqifmA2h6uPWoU6A-46" target="MI_QVqifmA2h6uPWoU6A-48">
          <mxGeometry relative="1" as="geometry" />
        </mxCell>
        <mxCell id="MI_QVqifmA2h6uPWoU6A-46" value="DecToOct&lt;br&gt;" style="ellipse;whiteSpace=wrap;html=1;aspect=fixed;" vertex="1" parent="1">
          <mxGeometry x="530" y="660" width="80" height="80" as="geometry" />
        </mxCell>
        <mxCell id="MI_QVqifmA2h6uPWoU6A-52" value="" style="edgeStyle=orthogonalEdgeStyle;rounded=0;orthogonalLoop=1;jettySize=auto;html=1;" edge="1" parent="1" source="MI_QVqifmA2h6uPWoU6A-48">
          <mxGeometry relative="1" as="geometry">
            <mxPoint x="570" y="840" as="targetPoint" />
          </mxGeometry>
        </mxCell>
        <mxCell id="MI_QVqifmA2h6uPWoU6A-48" value="&lt;div style=&quot;color: rgb(187, 187, 187); font-family: Consolas, &amp;quot;Courier New&amp;quot;, monospace; font-size: 14px; line-height: 19px;&quot;&gt;for (&lt;span style=&quot;color: rgb(209, 147, 228);&quot;&gt;int&lt;/span&gt; &lt;span style=&quot;color: rgb(194, 165, 233);&quot;&gt;octal&lt;/span&gt; : &lt;span style=&quot;color: rgb(194, 165, 233);&quot;&gt;result1&lt;/span&gt;)&lt;/div&gt;" style="shape=trapezoid;perimeter=trapezoidPerimeter;whiteSpace=wrap;html=1;fixedSize=1;" vertex="1" parent="1">
          <mxGeometry x="445" y="760" width="250" height="60" as="geometry" />
        </mxCell>
        <mxCell id="MI_QVqifmA2h6uPWoU6A-54" value="" style="edgeStyle=orthogonalEdgeStyle;rounded=0;orthogonalLoop=1;jettySize=auto;html=1;" edge="1" parent="1" target="MI_QVqifmA2h6uPWoU6A-53">
          <mxGeometry relative="1" as="geometry">
            <mxPoint x="570" y="900" as="sourcePoint" />
          </mxGeometry>
        </mxCell>
        <mxCell id="MI_QVqifmA2h6uPWoU6A-71" style="edgeStyle=orthogonalEdgeStyle;rounded=0;orthogonalLoop=1;jettySize=auto;html=1;entryX=0.5;entryY=0;entryDx=0;entryDy=0;" edge="1" parent="1" source="MI_QVqifmA2h6uPWoU6A-53" target="MI_QVqifmA2h6uPWoU6A-60">
          <mxGeometry relative="1" as="geometry" />
        </mxCell>
        <mxCell id="MI_QVqifmA2h6uPWoU6A-53" value="&lt;div style=&quot;color: rgb(187, 187, 187); font-family: Consolas, &amp;quot;Courier New&amp;quot;, monospace; font-size: 14px; line-height: 19px;&quot;&gt;for (&lt;span style=&quot;color: rgb(209, 147, 228);&quot;&gt;int&lt;/span&gt; &lt;span style=&quot;color: rgb(194, 165, 233);&quot;&gt;octal&lt;/span&gt; : &lt;span style=&quot;color: rgb(194, 165, 233);&quot;&gt;result1&lt;/span&gt;)&lt;/div&gt;" style="shape=trapezoid;perimeter=trapezoidPerimeter;whiteSpace=wrap;html=1;fixedSize=1;direction=west;" vertex="1" parent="1">
          <mxGeometry x="445" y="920" width="250" height="60" as="geometry" />
        </mxCell>
        <mxCell id="MI_QVqifmA2h6uPWoU6A-59" value="" style="edgeStyle=orthogonalEdgeStyle;rounded=0;orthogonalLoop=1;jettySize=auto;html=1;" edge="1" parent="1" source="MI_QVqifmA2h6uPWoU6A-60">
          <mxGeometry relative="1" as="geometry">
            <mxPoint x="570" y="1080" as="targetPoint" />
          </mxGeometry>
        </mxCell>
        <mxCell id="MI_QVqifmA2h6uPWoU6A-60" value="&lt;div style=&quot;color: rgb(187, 187, 187); font-family: Consolas, &amp;quot;Courier New&amp;quot;, monospace; font-size: 14px; line-height: 19px;&quot;&gt;for (&lt;span style=&quot;color: rgb(209, 147, 228);&quot;&gt;int&lt;/span&gt; &lt;span style=&quot;color: rgb(194, 165, 233);&quot;&gt;octal&lt;/span&gt; : &lt;span style=&quot;color: rgb(194, 165, 233);&quot;&gt;result2&lt;/span&gt;)&lt;/div&gt;" style="shape=trapezoid;perimeter=trapezoidPerimeter;whiteSpace=wrap;html=1;fixedSize=1;" vertex="1" parent="1">
          <mxGeometry x="445" y="1000" width="250" height="60" as="geometry" />
        </mxCell>
        <mxCell id="MI_QVqifmA2h6uPWoU6A-61" value="" style="edgeStyle=orthogonalEdgeStyle;rounded=0;orthogonalLoop=1;jettySize=auto;html=1;" edge="1" parent="1" target="MI_QVqifmA2h6uPWoU6A-63">
          <mxGeometry relative="1" as="geometry">
            <mxPoint x="570" y="1139.9999999999998" as="sourcePoint" />
          </mxGeometry>
        </mxCell>
        <mxCell id="MI_QVqifmA2h6uPWoU6A-72" style="edgeStyle=orthogonalEdgeStyle;rounded=0;orthogonalLoop=1;jettySize=auto;html=1;entryX=0.5;entryY=0;entryDx=0;entryDy=0;" edge="1" parent="1" source="MI_QVqifmA2h6uPWoU6A-63" target="MI_QVqifmA2h6uPWoU6A-65">
          <mxGeometry relative="1" as="geometry" />
        </mxCell>
        <mxCell id="MI_QVqifmA2h6uPWoU6A-63" value="&lt;div style=&quot;color: rgb(187, 187, 187); font-family: Consolas, &amp;quot;Courier New&amp;quot;, monospace; font-size: 14px; line-height: 19px;&quot;&gt;for (&lt;span style=&quot;color: rgb(209, 147, 228);&quot;&gt;int&lt;/span&gt; &lt;span style=&quot;color: rgb(194, 165, 233);&quot;&gt;octal&lt;/span&gt; : &lt;span style=&quot;color: rgb(194, 165, 233);&quot;&gt;result2&lt;/span&gt;)&lt;/div&gt;" style="shape=trapezoid;perimeter=trapezoidPerimeter;whiteSpace=wrap;html=1;fixedSize=1;direction=west;" vertex="1" parent="1">
          <mxGeometry x="445" y="1160" width="250" height="60" as="geometry" />
        </mxCell>
        <mxCell id="MI_QVqifmA2h6uPWoU6A-64" value="" style="edgeStyle=orthogonalEdgeStyle;rounded=0;orthogonalLoop=1;jettySize=auto;html=1;" edge="1" parent="1" source="MI_QVqifmA2h6uPWoU6A-65">
          <mxGeometry relative="1" as="geometry">
            <mxPoint x="570" y="1320.0000000000002" as="targetPoint" />
          </mxGeometry>
        </mxCell>
        <mxCell id="MI_QVqifmA2h6uPWoU6A-65" value="&lt;div style=&quot;color: rgb(187, 187, 187); font-family: Consolas, &amp;quot;Courier New&amp;quot;, monospace; font-size: 14px; line-height: 19px;&quot;&gt;for (&lt;span style=&quot;color: rgb(209, 147, 228);&quot;&gt;int&lt;/span&gt; &lt;span style=&quot;color: rgb(194, 165, 233);&quot;&gt;octal&lt;/span&gt; : &lt;span style=&quot;color: rgb(194, 165, 233);&quot;&gt;result3&lt;/span&gt;)&lt;/div&gt;" style="shape=trapezoid;perimeter=trapezoidPerimeter;whiteSpace=wrap;html=1;fixedSize=1;" vertex="1" parent="1">
          <mxGeometry x="445" y="1240" width="250" height="60" as="geometry" />
        </mxCell>
        <mxCell id="MI_QVqifmA2h6uPWoU6A-66" value="" style="edgeStyle=orthogonalEdgeStyle;rounded=0;orthogonalLoop=1;jettySize=auto;html=1;" edge="1" parent="1" target="MI_QVqifmA2h6uPWoU6A-68">
          <mxGeometry relative="1" as="geometry">
            <mxPoint x="570" y="1380.0000000000002" as="sourcePoint" />
          </mxGeometry>
        </mxCell>
        <mxCell id="MI_QVqifmA2h6uPWoU6A-77" value="" style="edgeStyle=orthogonalEdgeStyle;rounded=0;orthogonalLoop=1;jettySize=auto;html=1;" edge="1" parent="1" source="MI_QVqifmA2h6uPWoU6A-68" target="MI_QVqifmA2h6uPWoU6A-76">
          <mxGeometry relative="1" as="geometry" />
        </mxCell>
        <mxCell id="MI_QVqifmA2h6uPWoU6A-68" value="&lt;div style=&quot;color: rgb(187, 187, 187); font-family: Consolas, &amp;quot;Courier New&amp;quot;, monospace; font-size: 14px; line-height: 19px;&quot;&gt;for (&lt;span style=&quot;color: rgb(209, 147, 228);&quot;&gt;int&lt;/span&gt; &lt;span style=&quot;color: rgb(194, 165, 233);&quot;&gt;octal&lt;/span&gt; : &lt;span style=&quot;color: rgb(194, 165, 233);&quot;&gt;result3&lt;/span&gt;)&lt;/div&gt;" style="shape=trapezoid;perimeter=trapezoidPerimeter;whiteSpace=wrap;html=1;fixedSize=1;direction=west;" vertex="1" parent="1">
          <mxGeometry x="445" y="1400" width="250" height="60" as="geometry" />
        </mxCell>
        <mxCell id="MI_QVqifmA2h6uPWoU6A-73" value="std::cout&amp;nbsp;&lt;span style=&quot;font-family: Consolas, &amp;quot;Courier New&amp;quot;, monospace; font-size: 14px; color: rgb(218, 251, 172); font-style: italic;&quot;&gt;&amp;lt;&amp;lt;&lt;/span&gt;&lt;span style=&quot;color: rgb(187, 187, 187); font-family: Consolas, &amp;quot;Courier New&amp;quot;, monospace; font-size: 14px;&quot;&gt;&amp;nbsp;&lt;/span&gt;&lt;span style=&quot;font-family: Consolas, &amp;quot;Courier New&amp;quot;, monospace; font-size: 14px; color: rgb(194, 165, 233);&quot;&gt;octal&lt;br&gt;&lt;/span&gt;&lt;span style=&quot;color: rgb(187, 187, 187); font-family: Consolas, &amp;quot;Courier New&amp;quot;, monospace; font-size: 14px;&quot;&gt;&amp;nbsp;&lt;/span&gt;&lt;span style=&quot;font-family: Consolas, &amp;quot;Courier New&amp;quot;, monospace; font-size: 14px; color: rgb(218, 251, 172); font-style: italic;&quot;&gt;&amp;lt;&amp;lt;&lt;/span&gt;&lt;span style=&quot;color: rgb(187, 187, 187); font-family: Consolas, &amp;quot;Courier New&amp;quot;, monospace; font-size: 14px;&quot;&gt;&amp;nbsp;std::&lt;/span&gt;&lt;span style=&quot;font-family: Consolas, &amp;quot;Courier New&amp;quot;, monospace; font-size: 14px; color: rgb(255, 203, 154);&quot;&gt;endl&lt;/span&gt;&lt;span style=&quot;color: rgb(187, 187, 187); font-family: Consolas, &amp;quot;Courier New&amp;quot;, monospace; font-size: 14px;&quot;&gt;;&lt;/span&gt;" style="shape=parallelogram;perimeter=parallelogramPerimeter;whiteSpace=wrap;html=1;fixedSize=1;" vertex="1" parent="1">
          <mxGeometry x="500" y="840" width="140" height="60" as="geometry" />
        </mxCell>
        <mxCell id="MI_QVqifmA2h6uPWoU6A-74" value="std::cout&amp;nbsp;&lt;span style=&quot;font-family: Consolas, &amp;quot;Courier New&amp;quot;, monospace; font-size: 14px; color: rgb(218, 251, 172); font-style: italic;&quot;&gt;&amp;lt;&amp;lt;&lt;/span&gt;&lt;span style=&quot;color: rgb(187, 187, 187); font-family: Consolas, &amp;quot;Courier New&amp;quot;, monospace; font-size: 14px;&quot;&gt;&amp;nbsp;&lt;/span&gt;&lt;span style=&quot;font-family: Consolas, &amp;quot;Courier New&amp;quot;, monospace; font-size: 14px; color: rgb(194, 165, 233);&quot;&gt;octal&lt;br&gt;&lt;/span&gt;&lt;span style=&quot;color: rgb(187, 187, 187); font-family: Consolas, &amp;quot;Courier New&amp;quot;, monospace; font-size: 14px;&quot;&gt;&amp;nbsp;&lt;/span&gt;&lt;span style=&quot;font-family: Consolas, &amp;quot;Courier New&amp;quot;, monospace; font-size: 14px; color: rgb(218, 251, 172); font-style: italic;&quot;&gt;&amp;lt;&amp;lt;&lt;/span&gt;&lt;span style=&quot;color: rgb(187, 187, 187); font-family: Consolas, &amp;quot;Courier New&amp;quot;, monospace; font-size: 14px;&quot;&gt;&amp;nbsp;std::&lt;/span&gt;&lt;span style=&quot;font-family: Consolas, &amp;quot;Courier New&amp;quot;, monospace; font-size: 14px; color: rgb(255, 203, 154);&quot;&gt;endl&lt;/span&gt;&lt;span style=&quot;color: rgb(187, 187, 187); font-family: Consolas, &amp;quot;Courier New&amp;quot;, monospace; font-size: 14px;&quot;&gt;;&lt;/span&gt;" style="shape=parallelogram;perimeter=parallelogramPerimeter;whiteSpace=wrap;html=1;fixedSize=1;" vertex="1" parent="1">
          <mxGeometry x="500" y="1080" width="140" height="60" as="geometry" />
        </mxCell>
        <mxCell id="MI_QVqifmA2h6uPWoU6A-75" value="std::cout&amp;nbsp;&lt;span style=&quot;font-family: Consolas, &amp;quot;Courier New&amp;quot;, monospace; font-size: 14px; color: rgb(218, 251, 172); font-style: italic;&quot;&gt;&amp;lt;&amp;lt;&lt;/span&gt;&lt;span style=&quot;color: rgb(187, 187, 187); font-family: Consolas, &amp;quot;Courier New&amp;quot;, monospace; font-size: 14px;&quot;&gt;&amp;nbsp;&lt;/span&gt;&lt;span style=&quot;font-family: Consolas, &amp;quot;Courier New&amp;quot;, monospace; font-size: 14px; color: rgb(194, 165, 233);&quot;&gt;octal&lt;br&gt;&lt;/span&gt;&lt;span style=&quot;color: rgb(187, 187, 187); font-family: Consolas, &amp;quot;Courier New&amp;quot;, monospace; font-size: 14px;&quot;&gt;&amp;nbsp;&lt;/span&gt;&lt;span style=&quot;font-family: Consolas, &amp;quot;Courier New&amp;quot;, monospace; font-size: 14px; color: rgb(218, 251, 172); font-style: italic;&quot;&gt;&amp;lt;&amp;lt;&lt;/span&gt;&lt;span style=&quot;color: rgb(187, 187, 187); font-family: Consolas, &amp;quot;Courier New&amp;quot;, monospace; font-size: 14px;&quot;&gt;&amp;nbsp;std::&lt;/span&gt;&lt;span style=&quot;font-family: Consolas, &amp;quot;Courier New&amp;quot;, monospace; font-size: 14px; color: rgb(255, 203, 154);&quot;&gt;endl&lt;/span&gt;&lt;span style=&quot;color: rgb(187, 187, 187); font-family: Consolas, &amp;quot;Courier New&amp;quot;, monospace; font-size: 14px;&quot;&gt;;&lt;/span&gt;" style="shape=parallelogram;perimeter=parallelogramPerimeter;whiteSpace=wrap;html=1;fixedSize=1;" vertex="1" parent="1">
          <mxGeometry x="500" y="1320" width="140" height="60" as="geometry" />
        </mxCell>
        <mxCell id="MI_QVqifmA2h6uPWoU6A-76" value="END" style="ellipse;whiteSpace=wrap;html=1;" vertex="1" parent="1">
          <mxGeometry x="510" y="1500" width="120" height="40" as="geometry" />
        </mxCell>
      </root>
    </mxGraphModel>
  </diagram>
</mxfile>
